# xmcd CD database file
#
# Track frame offsets:
#	187
#	15595
#	36455
#	55175
#	80172
#	111190
#	138175
#	160225
#	187795
#	206760
#
# Disc length: 3219 seconds
#
# Revision: 2
# Processed by: cddbd v1.5.2PL0 Copyright (c) Steve Scherf et al.
# Submitted via: CDex 1.70beta3
#
DISCID=830c910a
DTITLE=阿川泰子&ビッグ・バンド - MY DUKE
DYEAR=1991
DGENRE=Blues
TTITLE0=TAKE THE“A”TRAIN
TTITLE1=SATIN DOLL
TTITLE2=I’M BEGINNING TO SEE THE LIGHT
TTITLE3=SOPHISTICATED LADY
TTITLE4=MOON INDIGO
TTITLE5=JUST SQUEEZE ME
TTITLE6=PERDIDO
TTITLE7=DO NOTHIN’TILL YOU HEAR FROM ME
TTITLE8=SOLITUDE
TTITLE9=DUKE’S PLACE
EXTD=YEAR: 1991
EXTT0=
EXTT1=
EXTT2=
EXTT3=
EXTT4=
EXTT5=
EXTT6=
EXTT7=
EXTT8=
EXTT9=
PLAYORDER=
